<svg width="63" height="63" viewBox="0 0 63 63" fill="none" xmlns="http://www.w3.org/2000/svg">
<circle cx="31.5" cy="31.5" r="31.5" fill="#F5EEE9"/>
<path d="M23.5555 18.32C23.2889 18.5867 22.9622 18.8867 22.5755 19.22C22.1889 19.5533 21.7822 19.8667 21.3555 20.16C20.9289 20.44 20.5022 20.68 20.0755 20.88C19.6622 21.08 19.2955 21.18 18.9755 21.18C18.6689 21.18 18.4355 21.1067 18.2755 20.96C18.1155 20.8 18.0555 20.5667 18.0955 20.26C18.1622 19.8333 18.4089 19.34 18.8355 18.78C19.2622 18.22 19.8622 17.5067 20.6355 16.64C21.2755 15.92 21.7755 15.32 22.1355 14.84C22.5089 14.36 22.7489 13.94 22.8555 13.58C22.9355 13.2733 22.8755 13.0667 22.6755 12.96C22.4755 12.84 22.2489 12.78 21.9955 12.78C21.4889 12.78 20.9222 12.9333 20.2955 13.24C19.6689 13.5333 19.0755 13.96 18.5155 14.52C18.1022 14.92 17.7289 15.3533 17.3955 15.82C17.0755 16.2867 16.9155 16.72 16.9155 17.12C16.9155 17.36 16.9755 17.56 17.0955 17.72C17.2155 17.8667 17.3955 17.94 17.6355 17.94C17.8089 17.9533 17.9555 17.94 18.0755 17.9C18.1955 17.8467 18.2889 17.7933 18.3555 17.74C18.4622 17.6733 18.5289 17.62 18.5555 17.58C18.5955 17.5267 18.6289 17.5133 18.6555 17.54C18.6822 17.5667 18.6622 17.6133 18.5955 17.68C18.5422 17.7467 18.4822 17.8067 18.4155 17.86C18.3089 17.9267 18.1889 17.9867 18.0555 18.04C17.9355 18.0933 17.7822 18.12 17.5955 18.12C16.9955 18.0933 16.6622 17.7667 16.5955 17.14C16.5689 16.6867 16.6889 16.1933 16.9555 15.66C17.2355 15.1267 17.6289 14.6267 18.1355 14.16C18.4422 13.88 18.7689 13.64 19.1155 13.44C19.4622 13.24 19.8089 13.08 20.1555 12.96C20.5022 12.84 20.8355 12.7533 21.1555 12.7C21.4755 12.6333 21.7555 12.6 21.9955 12.6C22.4622 12.6 22.8489 12.6933 23.1555 12.88C23.4755 13.0667 23.6289 13.3533 23.6155 13.74C23.6022 14.18 23.4022 14.6733 23.0155 15.22C22.6289 15.7533 22.1822 16.3067 21.6755 16.88C20.8889 17.76 20.2822 18.4733 19.8555 19.02C19.4289 19.5533 19.1889 19.9867 19.1355 20.32C19.1089 20.48 19.1222 20.5933 19.1755 20.66C19.2422 20.7267 19.3222 20.7733 19.4155 20.8C19.5355 20.8133 19.6822 20.7933 19.8555 20.74C20.0289 20.6733 20.2155 20.5867 20.4155 20.48C20.6155 20.3733 20.8155 20.2533 21.0155 20.12C21.2289 19.9867 21.4289 19.8533 21.6155 19.72C21.9222 19.4933 22.1955 19.28 22.4355 19.08C22.6889 18.8667 22.9289 18.6533 23.1555 18.44C23.3822 18.2267 23.6089 18 23.8355 17.76C24.0622 17.5067 24.3022 17.2267 24.5555 16.92C24.7022 16.76 24.9022 16.54 25.1555 16.26C25.4089 15.98 25.6955 15.68 26.0155 15.36C26.3355 15.0267 26.6822 14.6867 27.0555 14.34C27.4422 13.9933 27.8289 13.6667 28.2155 13.36C28.2955 13.2933 28.4022 13.2133 28.5355 13.12C28.6822 13.0267 28.8355 12.9333 28.9955 12.84C29.1555 12.7467 29.3089 12.6733 29.4555 12.62C29.6022 12.5533 29.7289 12.5267 29.8355 12.54C30.0222 12.5667 30.0955 12.6733 30.0555 12.86C30.0155 13.0333 29.9022 13.2267 29.7155 13.44C29.4889 13.68 29.2355 13.9133 28.9555 14.14C28.6889 14.3533 28.4422 14.54 28.2155 14.7C28.0555 14.82 27.9089 14.9333 27.7755 15.04C27.6422 15.1333 27.5022 15.2333 27.3555 15.34C27.2222 15.4333 27.0755 15.5467 26.9155 15.68C26.7689 15.8 26.5955 15.94 26.3955 16.1C26.3155 16.1933 26.2155 16.3133 26.0955 16.46C25.9889 16.5933 25.8755 16.7333 25.7555 16.88C25.5022 17.2133 25.2489 17.5533 24.9955 17.9C24.7422 18.2333 24.5089 18.56 24.2955 18.88C24.0955 19.2 23.9289 19.4933 23.7955 19.76C23.6622 20.0267 23.5955 20.2533 23.5955 20.44C23.5955 20.56 23.6422 20.6467 23.7355 20.7C23.8289 20.7533 23.9155 20.78 23.9955 20.78C24.1555 20.78 24.3489 20.72 24.5755 20.6C24.8155 20.48 25.0489 20.3333 25.2755 20.16C25.4222 20.0533 25.6022 19.9067 25.8155 19.72C26.0422 19.5333 26.2289 19.3733 26.3755 19.24C26.4289 19.2 26.4822 19.1667 26.5355 19.14C26.5889 19.1 26.6289 19.0933 26.6555 19.12C26.6822 19.1467 26.6689 19.1933 26.6155 19.26C26.5622 19.3133 26.5222 19.3533 26.4955 19.38C26.3622 19.5 26.1822 19.66 25.9555 19.86C25.7289 20.06 25.5422 20.2133 25.3955 20.32C25.3289 20.3733 25.2355 20.4467 25.1155 20.54C24.9955 20.62 24.8555 20.7067 24.6955 20.8C24.5489 20.88 24.3822 20.9533 24.1955 21.02C24.0222 21.0867 23.8355 21.12 23.6355 21.12C23.3422 21.12 23.1089 21.0467 22.9355 20.9C22.7755 20.7533 22.6955 20.5333 22.6955 20.24C22.6955 19.9467 22.7822 19.6333 22.9555 19.3C23.1422 18.9667 23.3489 18.64 23.5755 18.32H23.5555ZM26.9155 15.48C27.1022 15.32 27.2955 15.1733 27.4955 15.04C27.7089 14.8933 27.9089 14.7467 28.0955 14.6C28.4022 14.4 28.6689 14.2 28.8955 14C29.1355 13.7867 29.3089 13.6267 29.4155 13.52C29.8289 13.0667 29.9555 12.8067 29.7955 12.74C29.6889 12.7 29.5355 12.76 29.3355 12.92C29.1355 13.08 28.9289 13.2733 28.7155 13.5C28.4222 13.8067 28.1222 14.1267 27.8155 14.46C27.5222 14.78 27.2222 15.1133 26.9155 15.46V15.48ZM31.8907 18.34C31.8507 18.6333 31.7174 18.9467 31.4907 19.28C31.264 19.6133 30.9507 19.9333 30.5507 20.24C30.1374 20.5467 29.7307 20.7667 29.3307 20.9C28.944 21.02 28.584 21.0867 28.2507 21.1C28.024 21.1 27.8307 21.0733 27.6707 21.02C27.524 20.98 27.4507 20.8733 27.4507 20.7C27.464 20.5133 27.584 20.3667 27.8107 20.26C28.0507 20.1533 28.364 20.0467 28.7507 19.94C29.0307 19.8733 29.3107 19.8 29.5907 19.72C29.8707 19.64 30.104 19.56 30.2907 19.48C30.3974 19.3733 30.5174 19.22 30.6507 19.02C30.784 18.8067 30.8774 18.6267 30.9307 18.48C30.9707 18.3733 30.9907 18.2467 30.9907 18.1C30.9907 17.9533 30.904 17.88 30.7307 17.88C30.544 17.88 30.2974 17.96 29.9907 18.12C29.684 18.28 29.3507 18.5 28.9907 18.78C28.5507 19.1267 28.164 19.4533 27.8307 19.76C27.5107 20.0667 27.1574 20.4133 26.7707 20.8C26.5974 20.9733 26.404 21.0667 26.1907 21.08C25.9907 21.0933 25.884 21.0667 25.8707 21C25.844 20.9467 25.8574 20.8667 25.9107 20.76C26.004 20.56 26.124 20.3533 26.2707 20.14C26.404 19.9133 26.5574 19.6733 26.7307 19.42C26.824 19.2867 26.9174 19.16 27.0107 19.04C27.104 18.9067 27.204 18.7733 27.3107 18.64H27.2907C27.144 18.76 27.0107 18.88 26.8907 19C26.7707 19.1067 26.664 19.2 26.5707 19.28C26.464 19.3733 26.3907 19.4 26.3507 19.36C26.3107 19.3333 26.344 19.2667 26.4507 19.16C26.6107 19.0133 26.804 18.84 27.0307 18.64C27.2707 18.4267 27.504 18.2267 27.7307 18.04C28.0907 17.5733 28.4707 17.0933 28.8707 16.6C29.2707 16.0933 29.704 15.5733 30.1707 15.04C30.4507 14.7067 30.7974 14.3133 31.2107 13.86C31.6374 13.4067 32.0707 12.96 32.5107 12.52C32.964 12.0667 33.3907 11.6533 33.7907 11.28C34.204 10.8933 34.544 10.6067 34.8107 10.42C35.0774 10.22 35.3507 10.04 35.6307 9.88C35.924 9.70667 36.2174 9.62 36.5107 9.62C36.7774 9.62 36.9507 9.69333 37.0307 9.84C37.124 9.98667 37.1574 10.1533 37.1307 10.34C37.0907 10.58 36.9507 10.86 36.7107 11.18C36.4707 11.4867 36.1574 11.8267 35.7707 12.2C35.3974 12.56 34.9707 12.9467 34.4907 13.36C34.024 13.76 33.5374 14.1667 33.0307 14.58C32.724 14.8333 32.3907 15.0933 32.0307 15.36C31.684 15.6267 31.3307 15.9 30.9707 16.18C30.6107 16.46 30.2574 16.74 29.9107 17.02C29.564 17.3 29.244 17.5733 28.9507 17.84C28.8574 17.9467 28.7374 18.1067 28.5907 18.32C28.444 18.52 28.2974 18.72 28.1507 18.92C27.9774 19.16 27.7974 19.4133 27.6107 19.68L27.6307 19.7C27.924 19.3933 28.2307 19.1133 28.5507 18.86C28.884 18.5933 29.204 18.36 29.5107 18.16C29.7107 18.0267 29.9774 17.8867 30.3107 17.74C30.6574 17.5933 30.9774 17.54 31.2707 17.58C31.4974 17.6067 31.664 17.6867 31.7707 17.82C31.8774 17.94 31.9174 18.1133 31.8907 18.34ZM28.2507 20.88C28.4507 20.8533 28.624 20.8133 28.7707 20.76C28.9307 20.6933 29.0774 20.62 29.2107 20.54C29.5707 20.3133 29.8774 20.0333 30.1307 19.7C30.0107 19.7667 29.8107 19.84 29.5307 19.92C29.264 19.9867 29.0507 20.04 28.8907 20.08C28.5307 20.1733 28.2507 20.2667 28.0507 20.36C27.8507 20.4533 27.7574 20.5667 27.7707 20.7C27.784 20.78 27.8307 20.8333 27.9107 20.86C28.004 20.8867 28.1174 20.8933 28.2507 20.88ZM29.2707 17.32C29.7507 16.9067 30.164 16.56 30.5107 16.28C30.8574 15.9867 31.164 15.7333 31.4307 15.52C31.7107 15.3067 31.9574 15.1133 32.1707 14.94C32.3974 14.7533 32.624 14.56 32.8507 14.36C33.3307 13.9333 33.7907 13.52 34.2307 13.12C34.684 12.7067 35.084 12.3267 35.4307 11.98C35.7774 11.62 36.0574 11.2933 36.2707 11C36.484 10.7067 36.604 10.4467 36.6307 10.22C36.644 9.96667 36.5307 9.84 36.2907 9.84C36.1174 9.84 35.9107 9.92667 35.6707 10.1C35.4307 10.26 35.204 10.44 34.9907 10.64C34.644 10.9733 34.244 11.38 33.7907 11.86C33.3374 12.3267 32.8507 12.8733 32.3307 13.5C31.9707 13.94 31.6574 14.32 31.3907 14.64C31.124 14.9467 30.8774 15.24 30.6507 15.52C30.4374 15.8 30.2174 16.08 29.9907 16.36C29.7774 16.64 29.5374 16.96 29.2707 17.32ZM36.3277 18.34C36.5677 18.0867 36.7744 17.9 36.9477 17.78C37.1344 17.6467 37.3077 17.58 37.4677 17.58C37.6811 17.5667 37.8011 17.5867 37.8277 17.64C37.8677 17.6933 37.8344 17.78 37.7277 17.9C37.5944 18.0467 37.4277 18.24 37.2277 18.48C37.0277 18.7067 36.8211 18.9533 36.6077 19.22C36.4744 19.38 36.3477 19.5467 36.2277 19.72C36.1077 19.88 36.0011 20.04 35.9077 20.2C35.7744 20.44 35.7544 20.5933 35.8477 20.66C35.9011 20.7 35.9677 20.7067 36.0477 20.68C36.1411 20.6533 36.2277 20.62 36.3077 20.58C36.4144 20.5267 36.5477 20.4467 36.7077 20.34C36.8811 20.22 37.0477 20.0933 37.2077 19.96C37.4211 19.7867 37.6077 19.6333 37.7677 19.5C37.9277 19.3667 38.0611 19.2467 38.1677 19.14C38.2344 19.0867 38.2877 19.0467 38.3277 19.02C38.3811 18.98 38.4211 18.9733 38.4477 19C38.4877 19.04 38.4011 19.16 38.1877 19.36C38.0544 19.48 37.8811 19.6333 37.6677 19.82C37.4544 20.0067 37.2544 20.1733 37.0677 20.32C36.8677 20.48 36.6144 20.6533 36.3077 20.84C36.0011 21.0267 35.6811 21.12 35.3477 21.12C35.1611 21.12 35.0211 21.08 34.9277 21C34.8344 20.92 34.7811 20.82 34.7677 20.7C34.7544 20.5933 34.7744 20.4733 34.8277 20.34C34.8811 20.2067 34.9544 20.0867 35.0477 19.98L35.0277 19.96C34.8944 20.08 34.7411 20.2067 34.5677 20.34C34.3944 20.46 34.2077 20.58 34.0077 20.7C33.8211 20.8067 33.6211 20.9 33.4077 20.98C33.2077 21.06 33.0144 21.1067 32.8277 21.12C32.6011 21.1333 32.4011 21.0867 32.2277 20.98C32.0411 20.86 31.9677 20.64 32.0077 20.32C32.0344 20.1733 32.0877 20.02 32.1677 19.86C32.2477 19.6867 32.3811 19.4933 32.5677 19.28L32.5477 19.26C32.5211 19.2867 32.4877 19.32 32.4477 19.36C32.4077 19.4 32.3544 19.4467 32.2877 19.5C32.1944 19.5667 32.1344 19.5867 32.1077 19.56C32.0677 19.5067 32.1611 19.38 32.3877 19.18C32.4144 19.1533 32.4944 19.0867 32.6277 18.98C32.7611 18.86 32.8811 18.7667 32.9877 18.7C33.0944 18.6333 33.2277 18.5533 33.3877 18.46C33.5477 18.3533 33.7211 18.2467 33.9077 18.14C34.2944 17.94 34.6544 17.7867 34.9877 17.68C35.3344 17.5733 35.6411 17.54 35.9077 17.58C36.1077 17.6067 36.2411 17.7 36.3077 17.86C36.3877 18.0067 36.3944 18.1667 36.3277 18.34ZM35.8277 17.78C35.6277 17.78 35.3611 17.9 35.0277 18.14C34.6944 18.38 34.3477 18.68 33.9877 19.04C33.5744 19.44 33.2744 19.7733 33.0877 20.04C32.9144 20.2933 32.8411 20.4867 32.8677 20.62C32.8811 20.7533 32.9677 20.82 33.1277 20.82C33.3144 20.82 33.5744 20.7267 33.9077 20.54C34.2411 20.3533 34.5411 20.1333 34.8077 19.88C34.9677 19.7467 35.1277 19.5933 35.2877 19.42C35.4477 19.2467 35.5944 19.08 35.7277 18.92C35.8611 18.76 35.9677 18.6133 36.0477 18.48C36.1411 18.3333 36.1877 18.22 36.1877 18.14C36.2011 17.9 36.0811 17.78 35.8277 17.78ZM44.6895 19.16C44.4228 19.7333 43.9695 20.22 43.3295 20.62C42.7961 20.9667 42.3561 21.14 42.0095 21.14C41.5561 21.14 41.3295 20.9467 41.3295 20.56C41.3295 20.2667 41.4628 19.94 41.7295 19.58C41.3161 19.8733 40.8761 20.02 40.4095 20.02C40.0628 20.02 39.8161 19.9067 39.6695 19.68C39.4828 19.9733 39.1761 20.3867 38.7495 20.92C38.5095 21.0267 38.2828 21.08 38.0695 21.08C37.7761 21.08 37.6295 21.0267 37.6295 20.92C37.6295 20.7333 37.9295 20.2733 38.5295 19.54C39.0361 18.9 39.4361 18.44 39.7295 18.16V18.14C38.8495 18.86 38.3561 19.22 38.2495 19.22C38.2228 19.22 38.2095 19.2067 38.2095 19.18C38.3295 18.9133 38.6895 18.6 39.2895 18.24C39.8895 17.8667 40.3361 17.68 40.6295 17.68C40.8828 17.68 41.0095 17.7133 41.0095 17.78C41.0095 17.8333 40.6961 18.2667 40.0695 19.08C40.1761 19.1467 40.2295 19.2333 40.2295 19.34C40.2295 19.4067 40.1961 19.48 40.1295 19.56C40.0761 19.6267 40.0495 19.6733 40.0495 19.7C40.0495 19.82 40.1361 19.88 40.3095 19.88C40.8295 19.88 41.3161 19.6933 41.7695 19.32C41.7961 19.3067 42.1428 18.9533 42.8095 18.26C43.1828 17.8733 43.5161 17.68 43.8095 17.68C44.0895 17.68 44.2295 17.72 44.2295 17.8C44.2295 17.8267 43.9228 18.22 43.3095 18.98C42.7095 19.7267 42.4095 20.2 42.4095 20.4C42.4095 20.4933 42.4295 20.5667 42.4695 20.62C42.5095 20.66 42.5561 20.68 42.6095 20.68C42.8495 20.68 43.5028 20.1667 44.5695 19.14H44.6295C44.6561 19.14 44.6761 19.1467 44.6895 19.16ZM28.3837 29.14C28.317 29.1667 28.1903 29.2467 28.0037 29.38C27.8303 29.5 27.6703 29.62 27.5237 29.74C27.377 29.86 27.2437 29.9667 27.1237 30.06C27.017 30.1533 26.9103 30.2467 26.8037 30.34C26.6437 30.4733 26.5437 30.5267 26.5037 30.5C26.477 30.4733 26.4837 30.44 26.5237 30.4C26.5503 30.36 26.617 30.2867 26.7237 30.18C26.777 30.1267 26.857 30.0533 26.9637 29.96C27.0837 29.8667 27.2103 29.7667 27.3437 29.66C27.477 29.5533 27.6103 29.4467 27.7437 29.34C27.8903 29.2333 28.0237 29.14 28.1437 29.06C28.4103 28.8733 28.6237 28.7533 28.7837 28.7C28.9437 28.6467 29.117 28.62 29.3037 28.62C29.517 28.62 29.637 28.64 29.6637 28.68C29.6903 28.72 29.6437 28.8067 29.5237 28.94C29.3903 29.0867 29.2303 29.2667 29.0437 29.48C28.8703 29.6933 28.6837 29.9267 28.4837 30.18C28.3237 30.3933 28.1703 30.6 28.0237 30.8C27.8903 31 27.797 31.1533 27.7437 31.26C27.6637 31.4333 27.657 31.5533 27.7237 31.62C27.8037 31.7 27.957 31.6867 28.1837 31.58C28.4103 31.46 28.637 31.32 28.8637 31.16C29.1037 30.9867 29.377 30.78 29.6837 30.54C30.1637 30.1667 30.5637 29.8467 30.8837 29.58C31.2037 29.3133 31.5237 29.0533 31.8437 28.8C31.9237 28.7333 32.0037 28.68 32.0837 28.64C32.1637 28.6 32.277 28.58 32.4237 28.58C32.597 28.58 32.717 28.6 32.7837 28.64C32.8637 28.6667 32.8437 28.7533 32.7237 28.9C32.537 29.1267 32.3637 29.3333 32.2037 29.52C32.0437 29.6933 31.8637 29.9133 31.6637 30.18C31.317 30.6067 31.0703 30.9467 30.9237 31.2C30.7903 31.4267 30.7703 31.5733 30.8637 31.64C30.957 31.7067 31.1103 31.6867 31.3237 31.58C31.4303 31.5267 31.5637 31.4467 31.7237 31.34C31.897 31.2333 32.0637 31.1133 32.2237 30.98C32.4237 30.82 32.6037 30.6733 32.7637 30.54C32.937 30.3933 33.077 30.2667 33.1837 30.16C33.3303 30.0133 33.4237 29.9667 33.4637 30.02C33.4903 30.0467 33.477 30.0933 33.4237 30.16C33.3703 30.2133 33.3303 30.2533 33.3037 30.28C33.1837 30.4 33.0103 30.56 32.7837 30.76C32.557 30.9467 32.3237 31.1333 32.0837 31.32C31.9903 31.3867 31.877 31.4667 31.7437 31.56C31.6237 31.6533 31.4837 31.74 31.3237 31.82C31.177 31.9 31.017 31.9667 30.8437 32.02C30.6837 32.0867 30.5237 32.12 30.3637 32.12C29.9503 32.12 29.7437 31.96 29.7437 31.64C29.7437 31.4933 29.7703 31.3533 29.8237 31.22C29.8903 31.0867 29.9703 30.9533 30.0637 30.82C30.1703 30.66 30.3103 30.4933 30.4837 30.32C30.657 30.1333 30.8303 29.9533 31.0037 29.78L30.9837 29.76C30.7837 29.92 30.5303 30.12 30.2237 30.36C29.9303 30.6 29.6503 30.82 29.3837 31.02C28.9703 31.3267 28.5837 31.5867 28.2237 31.8C27.877 32.0133 27.5503 32.12 27.2437 32.12C27.0303 32.12 26.8637 32.0733 26.7437 31.98C26.6237 31.8867 26.5703 31.7467 26.5837 31.56C26.597 31.4133 26.6437 31.2733 26.7237 31.14C26.7903 30.9933 26.8703 30.86 26.9637 30.74C27.1637 30.4733 27.3703 30.2133 27.5837 29.96C27.8103 29.7067 28.077 29.4333 28.3837 29.14ZM7.67969 37.72C7.67969 37.5333 7.71969 37.34 7.79969 37.14C7.87969 36.94 7.97969 36.7533 8.09969 36.58C7.84635 36.3933 7.63969 36.1733 7.47969 35.92C7.31969 35.6533 7.23969 35.3733 7.23969 35.08C7.23969 34.68 7.37969 34.36 7.65969 34.12C7.95302 33.88 8.31302 33.7467 8.73969 33.72C9.12635 33.6933 9.54635 33.7733 9.99969 33.96C10.4664 34.1467 10.8597 34.4333 11.1797 34.82C11.433 34.78 11.6797 34.7467 11.9197 34.72C12.173 34.6933 12.4197 34.6867 12.6597 34.7C13.3397 34.7267 13.853 34.8667 14.1997 35.12C14.5464 35.36 14.7197 35.64 14.7197 35.96C14.7197 36.1867 14.6397 36.4 14.4797 36.6C14.3197 36.7867 14.0997 36.9533 13.8197 37.1C13.5397 37.2467 13.2197 37.3667 12.8597 37.46C12.4997 37.54 12.1197 37.58 11.7197 37.58C11.1997 37.58 10.6997 37.54 10.2197 37.46C9.73969 37.3667 9.30635 37.2267 8.91969 37.04C8.86635 37.1067 8.80635 37.1933 8.73969 37.3C8.68635 37.4067 8.64635 37.5133 8.61969 37.62C8.53969 37.8467 8.51969 38.06 8.55969 38.26C8.66635 38.2333 8.81969 38.2133 9.01969 38.2C9.21969 38.1867 9.39302 38.1867 9.53969 38.2C9.83302 38.2133 10.0864 38.26 10.2997 38.34C10.5264 38.4067 10.633 38.5267 10.6197 38.7C10.6197 38.8467 10.4997 38.9467 10.2597 39C10.0197 39.0533 9.77302 39.08 9.51969 39.08C9.21302 39.08 8.89969 39.0333 8.57969 38.94C8.27302 38.8467 8.05302 38.7133 7.91969 38.54C7.65302 38.6467 7.35302 38.8067 7.01969 39.02C6.68635 39.2333 6.37969 39.4733 6.09969 39.74C5.77969 40.0467 5.50635 40.3933 5.27969 40.78C5.06635 41.1667 4.94635 41.5533 4.91969 41.94C4.89302 42.4067 5.03302 42.7667 5.33969 43.02C5.65969 43.2733 6.06635 43.4 6.55969 43.4C7.15969 43.4 7.69302 43.2933 8.15969 43.08C8.63969 42.8667 9.07969 42.6333 9.47969 42.38C9.70635 42.22 9.93969 42.04 10.1797 41.84C10.433 41.6267 10.6064 41.4667 10.6997 41.36C10.7264 41.3333 10.7597 41.3 10.7997 41.26C10.8397 41.22 10.8797 41.2133 10.9197 41.24C10.9464 41.2667 10.9464 41.3067 10.9197 41.36C10.9064 41.4 10.8797 41.4333 10.8397 41.46C10.7864 41.5133 10.7064 41.5867 10.5997 41.68C10.5064 41.7733 10.3997 41.8733 10.2797 41.98C10.1597 42.0867 10.033 42.1933 9.89969 42.3C9.77969 42.3933 9.66635 42.4733 9.55969 42.54C9.14635 42.8333 8.68635 43.0867 8.17969 43.3C7.68635 43.5267 7.13969 43.6533 6.53969 43.68C5.67302 43.7067 4.97969 43.5733 4.45969 43.28C3.95302 43 3.69969 42.54 3.69969 41.9C3.69969 41.54 3.79302 41.18 3.97969 40.82C4.17969 40.46 4.45969 40.1267 4.81969 39.82C5.17969 39.5 5.61302 39.22 6.11969 38.98C6.63969 38.7267 7.21302 38.5267 7.83969 38.38C7.73302 38.2067 7.67969 37.9933 7.67969 37.74V37.72ZM11.6997 37.38C12.0197 37.38 12.333 37.3467 12.6397 37.28C12.9464 37.2133 13.213 37.12 13.4397 37C13.6797 36.88 13.873 36.7333 14.0197 36.56C14.1664 36.3867 14.2397 36.1867 14.2397 35.96C14.2664 35.72 14.1664 35.4867 13.9397 35.26C13.713 35.02 13.3064 34.8867 12.7197 34.86C12.2797 34.86 11.8264 34.94 11.3597 35.1C11.493 35.3667 11.5797 35.66 11.6197 35.98C11.6464 36.1533 11.653 36.2867 11.6397 36.38C11.6264 36.4733 11.6064 36.5133 11.5797 36.5C11.553 36.4867 11.5397 36.46 11.5397 36.42C11.553 36.3667 11.533 36.26 11.4797 36.1C11.4397 35.94 11.3797 35.7867 11.2997 35.64C11.2197 35.4933 11.133 35.3533 11.0397 35.22C10.853 35.3133 10.6197 35.4533 10.3397 35.64C10.0597 35.8267 9.80635 36.0267 9.57969 36.24C9.37969 36.4267 9.19302 36.6333 9.01969 36.86C9.37969 37.0467 9.79302 37.18 10.2597 37.26C10.7264 37.34 11.1997 37.38 11.6797 37.38H11.6997ZM10.7997 34.9C10.533 34.5933 10.2064 34.3467 9.81969 34.16C9.44635 33.96 9.07302 33.8733 8.69969 33.9C8.35302 33.9267 8.05969 34.04 7.81969 34.24C7.57969 34.4267 7.45969 34.7 7.45969 35.06C7.45969 35.3133 7.52635 35.5533 7.65969 35.78C7.80635 35.9933 7.99969 36.2 8.23969 36.4C8.35969 36.24 8.47969 36.1067 8.59969 36C8.87969 35.7467 9.21302 35.5267 9.59969 35.34C9.99969 35.1533 10.393 35.0067 10.7797 34.9H10.7997ZM8.61969 38.42C8.65969 38.5533 8.77302 38.66 8.95969 38.74C9.14635 38.82 9.33969 38.8667 9.53969 38.88C9.72635 38.8933 9.88635 38.88 10.0197 38.84C10.1664 38.8 10.2464 38.7333 10.2597 38.64C10.2597 38.5467 10.173 38.48 9.99969 38.44C9.83969 38.4 9.68635 38.3733 9.53969 38.36C9.43302 38.36 9.28635 38.36 9.09969 38.36C8.91302 38.36 8.75302 38.3733 8.61969 38.4V38.42ZM16.8141 41.06C16.7741 41.2467 16.3407 41.66 15.5141 42.3C14.8474 42.82 14.2874 43.08 13.8341 43.08C13.4607 43.08 13.2741 42.9133 13.2741 42.58C13.2741 42.34 13.5074 41.9067 13.9741 41.28C13.3074 41.88 12.8607 42.26 12.6341 42.42C12.0341 42.86 11.5341 43.08 11.1341 43.08C10.7474 43.08 10.5541 42.9267 10.5541 42.62C10.5541 42.54 10.5607 42.46 10.5741 42.38H10.5941C10.7007 42.0333 10.9407 41.86 11.3141 41.86C11.5407 41.86 11.6541 41.9267 11.6541 42.06C11.6541 42.1 11.6407 42.1667 11.6141 42.26C11.5874 42.3533 11.5741 42.4267 11.5741 42.48C11.5741 42.4933 11.5874 42.54 11.6141 42.62C11.6541 42.6333 11.6941 42.64 11.7341 42.64C11.9874 42.64 12.6207 42.2133 13.6341 41.36C14.2607 40.8133 14.8941 40.2667 15.5341 39.72C15.6407 39.64 15.8541 39.6 16.1741 39.6C16.2807 39.6 16.3341 39.6267 16.3341 39.68C16.3341 39.7067 15.9941 40.1267 15.3141 40.94C14.6341 41.7533 14.2941 42.2667 14.2941 42.48C14.3341 42.6 14.3807 42.66 14.4341 42.66C14.6607 42.66 15.0674 42.4067 15.6541 41.9C16.2407 41.38 16.6274 41.1 16.8141 41.06ZM18.1981 40.14C18.1315 40.1667 18.0048 40.2467 17.8181 40.38C17.6448 40.5 17.4848 40.62 17.3381 40.74C17.1915 40.86 17.0581 40.9667 16.9381 41.06C16.8315 41.1533 16.7248 41.2467 16.6181 41.34C16.4581 41.4733 16.3581 41.5267 16.3181 41.5C16.2915 41.4733 16.2981 41.44 16.3381 41.4C16.3648 41.36 16.4315 41.2867 16.5381 41.18C16.5915 41.1267 16.6715 41.0533 16.7781 40.96C16.8981 40.8667 17.0248 40.7667 17.1581 40.66C17.2915 40.5533 17.4248 40.4467 17.5581 40.34C17.7048 40.2333 17.8381 40.14 17.9581 40.06C18.2248 39.8733 18.4381 39.7533 18.5981 39.7C18.7581 39.6467 18.9315 39.62 19.1181 39.62C19.3315 39.62 19.4515 39.64 19.4781 39.68C19.5048 39.72 19.4581 39.8067 19.3381 39.94C19.2048 40.0867 19.0448 40.2667 18.8581 40.48C18.6848 40.6933 18.4981 40.9267 18.2981 41.18C18.1381 41.3933 17.9848 41.6 17.8381 41.8C17.7048 42 17.6115 42.1533 17.5581 42.26C17.4781 42.4333 17.4715 42.5533 17.5381 42.62C17.6181 42.7 17.7715 42.6867 17.9981 42.58C18.2248 42.46 18.4515 42.32 18.6781 42.16C18.9181 41.9867 19.1915 41.78 19.4981 41.54C19.9781 41.1667 20.3781 40.8467 20.6981 40.58C21.0181 40.3133 21.3381 40.0533 21.6581 39.8C21.7381 39.7333 21.8181 39.68 21.8981 39.64C21.9781 39.6 22.0915 39.58 22.2381 39.58C22.4115 39.58 22.5315 39.6 22.5981 39.64C22.6781 39.6667 22.6581 39.7533 22.5381 39.9C22.3515 40.1267 22.1781 40.3333 22.0181 40.52C21.8581 40.6933 21.6781 40.9133 21.4781 41.18C21.1315 41.6067 20.8848 41.9467 20.7381 42.2C20.6048 42.4267 20.5848 42.5733 20.6781 42.64C20.7715 42.7067 20.9248 42.6867 21.1381 42.58C21.2448 42.5267 21.3781 42.4467 21.5381 42.34C21.7115 42.2333 21.8781 42.1133 22.0381 41.98C22.2381 41.82 22.4181 41.6733 22.5781 41.54C22.7515 41.3933 22.8915 41.2667 22.9981 41.16C23.1448 41.0133 23.2381 40.9667 23.2781 41.02C23.3048 41.0467 23.2915 41.0933 23.2381 41.16C23.1848 41.2133 23.1448 41.2533 23.1181 41.28C22.9981 41.4 22.8248 41.56 22.5981 41.76C22.3715 41.9467 22.1381 42.1333 21.8981 42.32C21.8048 42.3867 21.6915 42.4667 21.5581 42.56C21.4381 42.6533 21.2981 42.74 21.1381 42.82C20.9915 42.9 20.8315 42.9667 20.6581 43.02C20.4981 43.0867 20.3381 43.12 20.1781 43.12C19.7648 43.12 19.5581 42.96 19.5581 42.64C19.5581 42.4933 19.5848 42.3533 19.6381 42.22C19.7048 42.0867 19.7848 41.9533 19.8781 41.82C19.9848 41.66 20.1248 41.4933 20.2981 41.32C20.4715 41.1333 20.6448 40.9533 20.8181 40.78L20.7981 40.76C20.5981 40.92 20.3448 41.12 20.0381 41.36C19.7448 41.6 19.4648 41.82 19.1981 42.02C18.7848 42.3267 18.3981 42.5867 18.0381 42.8C17.6915 43.0133 17.3648 43.12 17.0581 43.12C16.8448 43.12 16.6781 43.0733 16.5581 42.98C16.4381 42.8867 16.3848 42.7467 16.3981 42.56C16.4115 42.4133 16.4581 42.2733 16.5381 42.14C16.6048 41.9933 16.6848 41.86 16.7781 41.74C16.9781 41.4733 17.1848 41.2133 17.3981 40.96C17.6248 40.7067 17.8915 40.4333 18.1981 40.14ZM23.9844 42.28C24.171 42.24 24.3444 42.2267 24.5044 42.24C24.7044 42.2667 24.891 42.3333 25.0644 42.44C25.251 42.5333 25.3844 42.6933 25.4644 42.92C25.6244 42.8267 25.811 42.7133 26.0244 42.58C26.251 42.4333 26.4577 42.2867 26.6444 42.14C26.871 41.9667 27.0977 41.7867 27.3244 41.6C27.551 41.4133 27.731 41.26 27.8644 41.14C28.011 41.02 28.1044 40.98 28.1444 41.02C28.1844 41.06 28.0977 41.1733 27.8844 41.36C27.7644 41.4667 27.5977 41.6067 27.3844 41.78C27.1844 41.9533 26.9777 42.12 26.7644 42.28C26.5377 42.44 26.3177 42.5933 26.1044 42.74C25.891 42.8733 25.691 42.9933 25.5044 43.1C25.531 43.18 25.5444 43.28 25.5444 43.4C25.5444 43.76 25.431 44.1533 25.2044 44.58C24.991 45.02 24.7177 45.4533 24.3844 45.88C24.0644 46.32 23.711 46.7333 23.3244 47.12C22.951 47.52 22.611 47.8533 22.3044 48.12C21.8777 48.4933 21.431 48.86 20.9644 49.22C20.4844 49.58 20.011 49.9 19.5444 50.18C19.0777 50.46 18.6377 50.68 18.2244 50.84C17.811 51.0133 17.4577 51.1 17.1644 51.1C16.8444 51.1 16.6244 51.0267 16.5044 50.88C16.3844 50.7333 16.3244 50.5733 16.3244 50.4C16.3244 49.9067 16.6177 49.3533 17.2044 48.74C17.791 48.14 18.531 47.5 19.4244 46.82C20.211 46.2333 20.9377 45.7267 21.6044 45.3C22.271 44.8867 22.8444 44.5333 23.3244 44.24C23.6044 44.0667 23.871 43.9 24.1244 43.74C24.3777 43.5933 24.6177 43.4467 24.8444 43.3C24.871 43.0333 24.831 42.82 24.7244 42.66C24.631 42.5 24.491 42.42 24.3044 42.42C23.9977 42.42 23.7177 42.5067 23.4644 42.68C23.2244 42.8533 23.0244 43.0133 22.8644 43.16C22.8377 43.1867 22.8044 43.22 22.7644 43.26C22.711 43.3 22.6644 43.3 22.6244 43.26C22.5844 43.22 22.5777 43.1667 22.6044 43.1C22.6177 43.0333 22.6444 42.9733 22.6844 42.92C22.751 42.8267 22.8577 42.7333 23.0044 42.64C23.1644 42.5333 23.3377 42.4267 23.5244 42.32C23.911 42.12 24.2444 41.9533 24.5244 41.82C24.8177 41.6867 25.1377 41.5267 25.4844 41.34C25.831 41.1267 26.1177 40.9333 26.3444 40.76C26.5844 40.5867 26.7844 40.4067 26.9444 40.22C26.971 40.1933 26.991 40.1667 27.0044 40.14C27.031 40.1 27.0377 40.0667 27.0244 40.04C27.011 40.0133 26.971 40.0133 26.9044 40.04C26.651 40.1867 26.351 40.3133 26.0044 40.42C25.6577 40.5267 25.3577 40.58 25.1044 40.58C24.611 40.58 24.2844 40.4533 24.1244 40.2C23.951 40.3867 23.771 40.58 23.5844 40.78C23.3977 40.98 23.2244 41.1533 23.0644 41.3C22.9977 41.3667 22.951 41.4067 22.9244 41.42C22.8977 41.42 22.871 41.4067 22.8444 41.38C22.8044 41.3533 22.8444 41.28 22.9644 41.16C23.111 41.0133 23.2844 40.8333 23.4844 40.62C23.6977 40.4067 23.8844 40.2067 24.0444 40.02C24.031 39.94 24.0377 39.8467 24.0644 39.74C24.091 39.62 24.151 39.5067 24.2444 39.4C24.3377 39.2933 24.4444 39.22 24.5644 39.18C24.6844 39.1267 24.7977 39.1 24.9044 39.1C24.9844 39.1 25.0577 39.12 25.1244 39.16C25.2044 39.1867 25.2444 39.2333 25.2444 39.3C25.2044 39.3267 25.1444 39.36 25.0644 39.4C24.9977 39.44 24.951 39.5133 24.9244 39.62C24.8977 39.7 24.9177 39.7867 24.9844 39.88C25.051 39.9733 25.2177 40.02 25.4844 40.02C25.7644 40.02 26.0444 39.9933 26.3244 39.94C26.6177 39.8733 26.8777 39.7867 27.1044 39.68C27.1844 39.6533 27.2644 39.6333 27.3444 39.62C27.4244 39.6067 27.4777 39.62 27.5044 39.66C27.5577 39.7133 27.5577 39.7933 27.5044 39.9C27.451 40.0067 27.411 40.08 27.3844 40.12C27.2377 40.3067 27.0244 40.52 26.7444 40.76C26.4644 41 26.1044 41.24 25.6644 41.48C25.3177 41.6667 25.011 41.8133 24.7444 41.92C24.4777 42.0267 24.2244 42.1467 23.9844 42.28ZM17.2644 50.88C17.5444 50.88 17.8644 50.7867 18.2244 50.6C18.5844 50.4267 18.9644 50.1933 19.3644 49.9C19.7644 49.6067 20.171 49.2733 20.5844 48.9C20.9977 48.5267 21.391 48.14 21.7644 47.74C22.031 47.46 22.3244 47.1333 22.6444 46.76C22.9644 46.3867 23.271 46 23.5644 45.6C23.871 45.2 24.1377 44.8133 24.3644 44.44C24.591 44.08 24.7377 43.7733 24.8044 43.52C24.591 43.6667 24.3644 43.8133 24.1244 43.96C23.8844 44.1067 23.651 44.2533 23.4244 44.4C22.9444 44.7067 22.3644 45.08 21.6844 45.52C21.0044 45.96 20.291 46.46 19.5444 47.02C18.7577 47.62 18.1177 48.2067 17.6244 48.78C17.131 49.3533 16.8577 49.8733 16.8044 50.34C16.791 50.4733 16.811 50.5933 16.8644 50.7C16.9177 50.82 17.0444 50.88 17.2444 50.88H17.2644ZM31.7672 40.34C32.0072 40.0867 32.2139 39.9 32.3872 39.78C32.5739 39.6467 32.7472 39.58 32.9072 39.58C33.1205 39.5667 33.2405 39.5867 33.2672 39.64C33.3072 39.6933 33.2739 39.78 33.1672 39.9C33.0339 40.0467 32.8672 40.24 32.6672 40.48C32.4672 40.7067 32.2605 40.9533 32.0472 41.22C31.9139 41.38 31.7872 41.5467 31.6672 41.72C31.5472 41.88 31.4405 42.04 31.3472 42.2C31.2139 42.44 31.1939 42.5933 31.2872 42.66C31.3405 42.7 31.4072 42.7067 31.4872 42.68C31.5805 42.6533 31.6672 42.62 31.7472 42.58C31.8539 42.5267 31.9872 42.4467 32.1472 42.34C32.3205 42.22 32.4872 42.0933 32.6472 41.96C32.8605 41.7867 33.0472 41.6333 33.2072 41.5C33.3672 41.3667 33.5005 41.2467 33.6072 41.14C33.6739 41.0867 33.7272 41.0467 33.7672 41.02C33.8205 40.98 33.8605 40.9733 33.8872 41C33.9272 41.04 33.8405 41.16 33.6272 41.36C33.4939 41.48 33.3205 41.6333 33.1072 41.82C32.8939 42.0067 32.6939 42.1733 32.5072 42.32C32.3072 42.48 32.0539 42.6533 31.7472 42.84C31.4405 43.0267 31.1205 43.12 30.7872 43.12C30.6005 43.12 30.4605 43.08 30.3672 43C30.2739 42.92 30.2205 42.82 30.2072 42.7C30.1939 42.5933 30.2139 42.4733 30.2672 42.34C30.3205 42.2067 30.3939 42.0867 30.4872 41.98L30.4672 41.96C30.3339 42.08 30.1805 42.2067 30.0072 42.34C29.8339 42.46 29.6472 42.58 29.4472 42.7C29.2605 42.8067 29.0605 42.9 28.8472 42.98C28.6472 43.06 28.4539 43.1067 28.2672 43.12C28.0405 43.1333 27.8405 43.0867 27.6672 42.98C27.4805 42.86 27.4072 42.64 27.4472 42.32C27.4739 42.1733 27.5272 42.02 27.6072 41.86C27.6872 41.6867 27.8205 41.4933 28.0072 41.28L27.9872 41.26C27.9605 41.2867 27.9272 41.32 27.8872 41.36C27.8472 41.4 27.7939 41.4467 27.7272 41.5C27.6339 41.5667 27.5739 41.5867 27.5472 41.56C27.5072 41.5067 27.6005 41.38 27.8272 41.18C27.8539 41.1533 27.9339 41.0867 28.0672 40.98C28.2005 40.86 28.3205 40.7667 28.4272 40.7C28.5339 40.6333 28.6672 40.5533 28.8272 40.46C28.9872 40.3533 29.1605 40.2467 29.3472 40.14C29.7339 39.94 30.0939 39.7867 30.4272 39.68C30.7739 39.5733 31.0805 39.54 31.3472 39.58C31.5472 39.6067 31.6805 39.7 31.7472 39.86C31.8272 40.0067 31.8339 40.1667 31.7672 40.34ZM31.2672 39.78C31.0672 39.78 30.8005 39.9 30.4672 40.14C30.1339 40.38 29.7872 40.68 29.4272 41.04C29.0139 41.44 28.7139 41.7733 28.5272 42.04C28.3539 42.2933 28.2805 42.4867 28.3072 42.62C28.3205 42.7533 28.4072 42.82 28.5672 42.82C28.7539 42.82 29.0139 42.7267 29.3472 42.54C29.6805 42.3533 29.9805 42.1333 30.2472 41.88C30.4072 41.7467 30.5672 41.5933 30.7272 41.42C30.8872 41.2467 31.0339 41.08 31.1672 40.92C31.3005 40.76 31.4072 40.6133 31.4872 40.48C31.5805 40.3333 31.6272 40.22 31.6272 40.14C31.6405 39.9 31.5205 39.78 31.2672 39.78ZM39.0489 40.34C39.0089 40.6333 38.8756 40.9467 38.6489 41.28C38.4222 41.6133 38.1089 41.9333 37.7089 42.24C37.2956 42.5467 36.8889 42.7667 36.4889 42.9C36.1022 43.02 35.7422 43.0867 35.4089 43.1C35.1822 43.1 34.9889 43.0733 34.8289 43.02C34.6822 42.98 34.6089 42.8733 34.6089 42.7C34.6222 42.5133 34.7422 42.3667 34.9689 42.26C35.2089 42.1533 35.5222 42.0467 35.9089 41.94C36.1889 41.8733 36.4689 41.8 36.7489 41.72C37.0289 41.64 37.2622 41.56 37.4489 41.48C37.5556 41.3733 37.6756 41.22 37.8089 41.02C37.9422 40.8067 38.0356 40.6267 38.0889 40.48C38.1289 40.3733 38.1489 40.2467 38.1489 40.1C38.1489 39.9533 38.0622 39.88 37.8889 39.88C37.7022 39.88 37.4556 39.96 37.1489 40.12C36.8422 40.28 36.5089 40.5 36.1489 40.78C35.7089 41.1267 35.3222 41.4533 34.9889 41.76C34.6689 42.0667 34.3156 42.4133 33.9289 42.8C33.7556 42.9733 33.5622 43.0667 33.3489 43.08C33.1489 43.0933 33.0422 43.0667 33.0289 43C33.0022 42.9467 33.0156 42.8667 33.0689 42.76C33.1622 42.56 33.2822 42.3533 33.4289 42.14C33.5622 41.9133 33.7156 41.6733 33.8889 41.42C33.9822 41.2867 34.0756 41.16 34.1689 41.04C34.2622 40.9067 34.3622 40.7733 34.4689 40.64H34.4489C34.3022 40.76 34.1689 40.88 34.0489 41C33.9289 41.1067 33.8222 41.2 33.7289 41.28C33.6222 41.3733 33.5489 41.4 33.5089 41.36C33.4689 41.3333 33.5022 41.2667 33.6089 41.16C33.7689 41.0133 33.9622 40.84 34.1889 40.64C34.4289 40.4267 34.6622 40.2267 34.8889 40.04C35.2489 39.5733 35.6289 39.0933 36.0289 38.6C36.4289 38.0933 36.8622 37.5733 37.3289 37.04C37.6089 36.7067 37.9556 36.3133 38.3689 35.86C38.7956 35.4067 39.2289 34.96 39.6689 34.52C40.1222 34.0667 40.5489 33.6533 40.9489 33.28C41.3622 32.8933 41.7022 32.6067 41.9689 32.42C42.2356 32.22 42.5089 32.04 42.7889 31.88C43.0822 31.7067 43.3756 31.62 43.6689 31.62C43.9356 31.62 44.1089 31.6933 44.1889 31.84C44.2822 31.9867 44.3156 32.1533 44.2889 32.34C44.2489 32.58 44.1089 32.86 43.8689 33.18C43.6289 33.4867 43.3156 33.8267 42.9289 34.2C42.5556 34.56 42.1289 34.9467 41.6489 35.36C41.1822 35.76 40.6956 36.1667 40.1889 36.58C39.8822 36.8333 39.5489 37.0933 39.1889 37.36C38.8422 37.6267 38.4889 37.9 38.1289 38.18C37.7689 38.46 37.4156 38.74 37.0689 39.02C36.7222 39.3 36.4022 39.5733 36.1089 39.84C36.0156 39.9467 35.8956 40.1067 35.7489 40.32C35.6022 40.52 35.4556 40.72 35.3089 40.92C35.1356 41.16 34.9556 41.4133 34.7689 41.68L34.7889 41.7C35.0822 41.3933 35.3889 41.1133 35.7089 40.86C36.0422 40.5933 36.3622 40.36 36.6689 40.16C36.8689 40.0267 37.1356 39.8867 37.4689 39.74C37.8156 39.5933 38.1356 39.54 38.4289 39.58C38.6556 39.6067 38.8222 39.6867 38.9289 39.82C39.0356 39.94 39.0756 40.1133 39.0489 40.34ZM35.4089 42.88C35.6089 42.8533 35.7822 42.8133 35.9289 42.76C36.0889 42.6933 36.2356 42.62 36.3689 42.54C36.7289 42.3133 37.0356 42.0333 37.2889 41.7C37.1689 41.7667 36.9689 41.84 36.6889 41.92C36.4222 41.9867 36.2089 42.04 36.0489 42.08C35.6889 42.1733 35.4089 42.2667 35.2089 42.36C35.0089 42.4533 34.9156 42.5667 34.9289 42.7C34.9422 42.78 34.9889 42.8333 35.0689 42.86C35.1622 42.8867 35.2756 42.8933 35.4089 42.88ZM36.4289 39.32C36.9089 38.9067 37.3222 38.56 37.6689 38.28C38.0156 37.9867 38.3222 37.7333 38.5889 37.52C38.8689 37.3067 39.1156 37.1133 39.3289 36.94C39.5556 36.7533 39.7822 36.56 40.0089 36.36C40.4889 35.9333 40.9489 35.52 41.3889 35.12C41.8422 34.7067 42.2422 34.3267 42.5889 33.98C42.9356 33.62 43.2156 33.2933 43.4289 33C43.6422 32.7067 43.7622 32.4467 43.7889 32.22C43.8022 31.9667 43.6889 31.84 43.4489 31.84C43.2756 31.84 43.0689 31.9267 42.8289 32.1C42.5889 32.26 42.3622 32.44 42.1489 32.64C41.8022 32.9733 41.4022 33.38 40.9489 33.86C40.4956 34.3267 40.0089 34.8733 39.4889 35.5C39.1289 35.94 38.8156 36.32 38.5489 36.64C38.2822 36.9467 38.0356 37.24 37.8089 37.52C37.5956 37.8 37.3756 38.08 37.1489 38.36C36.9356 38.64 36.6956 38.96 36.4289 39.32ZM40.7659 42.88C40.8993 42.88 41.1259 42.8333 41.4459 42.74C41.7659 42.6467 42.1459 42.4467 42.5859 42.14C42.7726 42.0067 42.9726 41.86 43.1859 41.7C43.4126 41.5267 43.6193 41.3533 43.8059 41.18C43.9126 41.0867 43.9859 41.06 44.0259 41.1C44.0659 41.1533 44.0126 41.24 43.8659 41.36C43.7326 41.48 43.5326 41.6467 43.2659 41.86C43.0126 42.0733 42.7926 42.24 42.6059 42.36C41.7793 42.9067 41.0259 43.18 40.3459 43.18C39.6126 43.18 39.2593 42.9133 39.2859 42.38C39.2993 42.0067 39.4993 41.5933 39.8859 41.14L39.8659 41.12C39.8393 41.1467 39.7793 41.2 39.6859 41.28C39.6059 41.36 39.5326 41.4267 39.4659 41.48C39.3726 41.56 39.3059 41.58 39.2659 41.54C39.2393 41.5133 39.2459 41.48 39.2859 41.44C39.3126 41.4 39.3459 41.36 39.3859 41.32C39.5193 41.2 39.6393 41.1 39.7459 41.02C39.8526 40.9267 39.9793 40.8267 40.1259 40.72C40.2326 40.64 40.3726 40.5467 40.5459 40.44C40.7326 40.3333 40.9193 40.2267 41.1059 40.12C41.3993 39.9733 41.6926 39.8467 41.9859 39.74C42.2793 39.62 42.5593 39.56 42.8259 39.56H42.8459C43.0726 39.56 43.2259 39.62 43.3059 39.74C43.3993 39.8467 43.4393 39.9667 43.4259 40.1C43.3993 40.3667 43.2526 40.6 42.9859 40.8C42.7326 41 42.4526 41.1733 42.1459 41.32C41.8526 41.4667 41.5459 41.5933 41.2259 41.7C40.9193 41.8067 40.6526 41.8933 40.4259 41.96C40.3459 42.12 40.3059 42.2733 40.3059 42.42C40.3059 42.7267 40.4593 42.88 40.7659 42.88ZM40.5459 41.74C40.7459 41.6867 40.9659 41.6133 41.2059 41.52C41.4593 41.4133 41.6926 41.2867 41.9059 41.14C42.1593 40.9667 42.3526 40.7867 42.4859 40.6C42.6326 40.4133 42.7126 40.2467 42.7259 40.1C42.7526 39.9133 42.6726 39.82 42.4859 39.82C42.3126 39.82 42.0193 40.0133 41.6059 40.4C41.4459 40.5467 41.2593 40.76 41.0459 41.04C40.8326 41.3067 40.6659 41.54 40.5459 41.74ZM44.8442 40.24C45.1109 40.0267 45.3509 39.8667 45.5642 39.76C45.7776 39.64 45.9909 39.58 46.2042 39.58C46.3909 39.58 46.5176 39.6267 46.5842 39.72C46.6642 39.8133 46.7042 39.9133 46.7042 40.02C46.7042 40.14 46.6642 40.2667 46.5842 40.4C46.5176 40.5333 46.4176 40.6933 46.2842 40.88C46.1376 41.08 45.9709 41.3 45.7842 41.54C45.5976 41.78 45.4509 41.98 45.3442 42.14L45.3642 42.16C45.6042 41.96 45.8842 41.7267 46.2042 41.46C46.5242 41.1933 46.8576 40.9267 47.2042 40.66C47.5509 40.3933 47.9242 40.1467 48.3242 39.92C48.7242 39.6933 49.0709 39.58 49.3642 39.58C49.6176 39.58 49.7909 39.6333 49.8842 39.74C49.9909 39.8467 50.0309 39.9867 50.0042 40.16C49.9776 40.32 49.8842 40.5 49.7242 40.7C49.5642 40.9 49.3976 41.1 49.2242 41.3C49.0509 41.5 48.9109 41.6667 48.8042 41.8C48.6976 41.9333 48.5976 42.06 48.5042 42.18L48.5242 42.2C48.7509 42 49.0309 41.76 49.3642 41.48C49.7109 41.2 50.0576 40.9267 50.4042 40.66C50.7509 40.3933 51.1242 40.1467 51.5242 39.92C51.9242 39.6933 52.2776 39.58 52.5842 39.58C52.8109 39.58 52.9776 39.6333 53.0842 39.74C53.1909 39.8333 53.2309 39.96 53.2042 40.12C53.1776 40.3067 53.0776 40.5067 52.9042 40.72C52.7309 40.9333 52.5642 41.14 52.4042 41.34C52.2442 41.5267 52.1109 41.7 52.0042 41.86C51.8976 42.0067 51.8109 42.1267 51.7442 42.22C51.5976 42.4467 51.5709 42.5933 51.6642 42.66C51.7176 42.7 51.7909 42.7067 51.8842 42.68C51.9776 42.6533 52.0642 42.62 52.1442 42.58C52.2642 42.5133 52.3976 42.44 52.5442 42.36C52.6909 42.2667 52.8776 42.1333 53.1042 41.96C53.2776 41.8267 53.4509 41.6867 53.6242 41.54C53.8109 41.38 53.9576 41.2467 54.0642 41.14C54.1976 41.02 54.2842 40.98 54.3242 41.02C54.3509 41.06 54.2976 41.1467 54.1642 41.28C54.0709 41.3733 53.8976 41.5333 53.6442 41.76C53.4042 41.9733 53.1776 42.16 52.9642 42.32C52.8576 42.4 52.7309 42.4867 52.5842 42.58C52.4509 42.6733 52.3042 42.76 52.1442 42.84C51.9842 42.92 51.8176 42.9867 51.6442 43.04C51.4842 43.0933 51.3242 43.12 51.1642 43.12C50.7376 43.12 50.5376 42.9467 50.5642 42.6C50.5776 42.3733 50.6776 42.14 50.8642 41.9C51.0509 41.6467 51.2309 41.4133 51.4042 41.2C51.5509 41.0133 51.6909 40.84 51.8242 40.68C51.9709 40.52 52.1109 40.3667 52.2442 40.22C52.2842 40.1667 52.3109 40.1133 52.3242 40.06C52.3376 40.0067 52.3176 39.9667 52.2642 39.94C52.2109 39.9133 52.1376 39.9133 52.0442 39.94C51.9509 39.9667 51.8509 40.0067 51.7442 40.06C51.5576 40.1533 51.3309 40.2867 51.0642 40.46C50.7976 40.62 50.5042 40.8267 50.1842 41.08C49.9576 41.2533 49.7576 41.4133 49.5842 41.56C49.4109 41.7067 49.2376 41.8533 49.0642 42C48.8909 42.1333 48.7109 42.2733 48.5242 42.42C48.3509 42.5667 48.1576 42.7267 47.9442 42.9C47.7842 43.02 47.6109 43.08 47.4242 43.08C47.2642 43.08 47.1642 43.06 47.1242 43.02C47.0842 42.98 47.0976 42.8933 47.1642 42.76C47.2709 42.5467 47.4242 42.2933 47.6242 42C47.8376 41.6933 48.0376 41.4267 48.2242 41.2C48.3976 40.9867 48.5642 40.8 48.7242 40.64C48.8842 40.4667 48.9976 40.3267 49.0642 40.22C49.1042 40.1667 49.1242 40.1133 49.1242 40.06C49.1376 40.0067 49.1109 39.9667 49.0442 39.94C48.9509 39.9133 48.7842 39.9533 48.5442 40.06C48.3576 40.1533 48.1242 40.2867 47.8442 40.46C47.5776 40.6333 47.2909 40.84 46.9842 41.08C46.7576 41.2533 46.5576 41.4133 46.3842 41.56C46.2109 41.7067 46.0376 41.8533 45.8642 42C45.6909 42.1333 45.5109 42.2733 45.3242 42.42C45.1509 42.5667 44.9576 42.7267 44.7442 42.9C44.5842 43.02 44.4109 43.08 44.2242 43.08C44.0776 43.08 43.9776 43.06 43.9242 43.02C43.8709 42.9933 43.8842 42.9067 43.9642 42.76C44.0309 42.6267 44.1576 42.4267 44.3442 42.16C44.5309 41.88 44.6976 41.6333 44.8442 41.42C44.9909 41.2067 45.1309 41.02 45.2642 40.86C45.4109 40.6867 45.5376 40.5267 45.6442 40.38C45.7776 40.2067 45.8242 40.0933 45.7842 40.04C45.7309 39.9733 45.6309 39.98 45.4842 40.06C45.3642 40.1267 45.2309 40.2067 45.0842 40.3C44.9509 40.3933 44.8242 40.4933 44.7042 40.6C44.5709 40.7067 44.4309 40.8267 44.2842 40.96C44.1376 41.0933 43.9909 41.2267 43.8442 41.36C43.6576 41.52 43.5442 41.58 43.5042 41.54C43.4776 41.5 43.5776 41.3733 43.8042 41.16C43.9242 41.0533 44.0776 40.9133 44.2642 40.74C44.4642 40.5533 44.6576 40.3867 44.8442 40.24ZM57.9586 40.34C58.1986 40.0867 58.4053 39.9 58.5786 39.78C58.7653 39.6467 58.9386 39.58 59.0986 39.58C59.3119 39.5667 59.4319 39.5867 59.4586 39.64C59.4986 39.6933 59.4653 39.78 59.3586 39.9C59.2253 40.0467 59.0586 40.24 58.8586 40.48C58.6586 40.7067 58.4519 40.9533 58.2386 41.22C58.1053 41.38 57.9786 41.5467 57.8586 41.72C57.7386 41.88 57.6319 42.04 57.5386 42.2C57.4053 42.44 57.3853 42.5933 57.4786 42.66C57.5319 42.7 57.5986 42.7067 57.6786 42.68C57.7719 42.6533 57.8586 42.62 57.9386 42.58C58.0453 42.5267 58.1786 42.4467 58.3386 42.34C58.5119 42.22 58.6786 42.0933 58.8386 41.96C59.0519 41.7867 59.2386 41.6333 59.3986 41.5C59.5586 41.3667 59.6919 41.2467 59.7986 41.14C59.8653 41.0867 59.9186 41.0467 59.9586 41.02C60.0119 40.98 60.0519 40.9733 60.0786 41C60.1186 41.04 60.0319 41.16 59.8186 41.36C59.6853 41.48 59.5119 41.6333 59.2986 41.82C59.0853 42.0067 58.8853 42.1733 58.6986 42.32C58.4986 42.48 58.2453 42.6533 57.9386 42.84C57.6319 43.0267 57.3119 43.12 56.9786 43.12C56.7919 43.12 56.6519 43.08 56.5586 43C56.4653 42.92 56.4119 42.82 56.3986 42.7C56.3853 42.5933 56.4053 42.4733 56.4586 42.34C56.5119 42.2067 56.5853 42.0867 56.6786 41.98L56.6586 41.96C56.5253 42.08 56.3719 42.2067 56.1986 42.34C56.0253 42.46 55.8386 42.58 55.6386 42.7C55.4519 42.8067 55.2519 42.9 55.0386 42.98C54.8386 43.06 54.6453 43.1067 54.4586 43.12C54.2319 43.1333 54.0319 43.0867 53.8586 42.98C53.6719 42.86 53.5986 42.64 53.6386 42.32C53.6653 42.1733 53.7186 42.02 53.7986 41.86C53.8786 41.6867 54.0119 41.4933 54.1986 41.28L54.1786 41.26C54.1519 41.2867 54.1186 41.32 54.0786 41.36C54.0386 41.4 53.9853 41.4467 53.9186 41.5C53.8253 41.5667 53.7653 41.5867 53.7386 41.56C53.6986 41.5067 53.7919 41.38 54.0186 41.18C54.0453 41.1533 54.1253 41.0867 54.2586 40.98C54.3919 40.86 54.5119 40.7667 54.6186 40.7C54.7253 40.6333 54.8586 40.5533 55.0186 40.46C55.1786 40.3533 55.3519 40.2467 55.5386 40.14C55.9253 39.94 56.2853 39.7867 56.6186 39.68C56.9653 39.5733 57.2719 39.54 57.5386 39.58C57.7386 39.6067 57.8719 39.7 57.9386 39.86C58.0186 40.0067 58.0253 40.1667 57.9586 40.34ZM57.4586 39.78C57.2586 39.78 56.9919 39.9 56.6586 40.14C56.3253 40.38 55.9786 40.68 55.6186 41.04C55.2053 41.44 54.9053 41.7733 54.7186 42.04C54.5453 42.2933 54.4719 42.4867 54.4986 42.62C54.5119 42.7533 54.5986 42.82 54.7586 42.82C54.9453 42.82 55.2053 42.7267 55.5386 42.54C55.8719 42.3533 56.1719 42.1333 56.4386 41.88C56.5986 41.7467 56.7586 41.5933 56.9186 41.42C57.0786 41.2467 57.2253 41.08 57.3586 40.92C57.4919 40.76 57.5986 40.6133 57.6786 40.48C57.7719 40.3333 57.8186 40.22 57.8186 40.14C57.8319 39.9 57.7119 39.78 57.4586 39.78Z" fill="#8A312B"/>
</svg>
